<svg width="32" height="32" viewBox="0 0 32 32" fill="none" xmlns="http://www.w3.org/2000/svg">
<path d="M28.0007 4H4.00065C2.53398 4 1.33398 5.2 1.33398 6.66667V25.3333C1.33398 26.8 2.53398 28 4.00065 28H28.0007C29.4673 28 30.6673 26.8 30.6673 25.3333V6.66667C30.6673 5.2 29.4673 4 28.0007 4ZM28.0007 25.3333H4.00065V6.66667H28.0007V25.3333ZM10.6673 20C10.6673 17.7867 12.454 16 14.6673 16C15.134 16 15.5873 16.0933 16.0007 16.24V8H22.6673V10.6667H18.6673V20.04C18.6407 22.2267 16.8673 24 14.6673 24C12.454 24 10.6673 22.2133 10.6673 20Z" fill="white"/>
</svg>
