<svg width="28" height="28" viewBox="0 0 0.84 0.84" fill="none" xmlns="http://www.w3.org/2000/svg"><path d="M0.245 0.14a0.07 0.07 0 0 1 0.07 -0.07h0.21a0.07 0.07 0 0 1 0.07 0.07v0.07h0.14a0.035 0.035 0 1 1 0 0.07h-0.037l-0.03 0.425A0.07 0.07 0 0 1 0.597 0.77H0.243a0.07 0.07 0 0 1 -0.07 -0.065L0.142 0.28H0.105a0.035 0.035 0 0 1 0 -0.07h0.14zm0.07 0.07h0.21V0.14H0.315zM0.213 0.28l0.03 0.42H0.597l0.03 -0.42zM0.35 0.35a0.035 0.035 0 0 1 0.035 0.035v0.21a0.035 0.035 0 1 1 -0.07 0v-0.21a0.035 0.035 0 0 1 0.035 -0.035m0.14 0a0.035 0.035 0 0 1 0.035 0.035v0.21a0.035 0.035 0 1 1 -0.07 0v-0.21a0.035 0.035 0 0 1 0.035 -0.035" fill="#FFFFFF80"/></svg>