<svg width="40" height="40" viewBox="0 0 40 40" fill="none" xmlns="http://www.w3.org/2000/svg">
<path d="M33.332 6.66683V26.6668H13.332V6.66683H33.332ZM33.332 3.3335H13.332C11.4987 3.3335 9.9987 4.8335 9.9987 6.66683V26.6668C9.9987 28.5002 11.4987 30.0002 13.332 30.0002H33.332C35.1654 30.0002 36.6654 28.5002 36.6654 26.6668V6.66683C36.6654 4.8335 35.1654 3.3335 33.332 3.3335ZM19.1654 19.4502L21.982 23.2168L26.1154 18.0502L31.6654 25.0002H14.9987L19.1654 19.4502ZM3.33203 10.0002V33.3335C3.33203 35.1668 4.83203 36.6668 6.66536 36.6668H29.9987V33.3335H6.66536V10.0002H3.33203Z" fill="white"/>
</svg>
