<svg width="28" height="28" viewBox="0 0 28 28" fill="none" xmlns="http://www.w3.org/2000/svg">
<path d="M19.2502 3.5C18.1302 3.5 17.0335 3.79167 16.0652 4.305L14.0002 10.5H17.5002L14.0002 22.1667L15.1668 11.6667H11.6668L13.4635 5.37833C12.2152 4.21167 10.5118 3.5 8.75016 3.5C5.15683 3.5 2.3335 6.32333 2.3335 9.91667C2.3335 14.735 7.18683 18.2933 14.0002 24.5C20.3818 18.7367 25.6668 14.8633 25.6668 9.91667C25.6668 6.32333 22.8435 3.5 19.2502 3.5ZM11.9468 19.5183C7.52516 15.5633 4.66683 12.8333 4.66683 9.91667C4.66683 7.63 6.4635 5.83333 8.75016 5.83333C9.4385 5.83333 10.1385 6.00833 10.7685 6.32333L8.57516 14H12.5652L11.9468 19.5183ZM17.6518 18.1183L20.6385 8.16667H17.2435L17.9552 6.04333C18.3752 5.90333 18.8185 5.83333 19.2502 5.83333C21.5368 5.83333 23.3335 7.63 23.3335 9.91667C23.3335 12.495 20.9768 15.085 17.6518 18.1183Z" fill="#FF38B6"/>
</svg>
