<svg width="28" height="28" viewBox="0 0 28 28" fill="none" xmlns="http://www.w3.org/2000/svg">
<path d="M19.2499 3.5C18.1299 3.5 17.0333 3.79167 16.0649 4.305L13.9999 10.5H17.4999L13.9999 22.1667L15.1666 11.6667H11.6666L13.4633 5.37833C12.2149 4.21167 10.5116 3.5 8.74992 3.5C5.15659 3.5 2.33325 6.32333 2.33325 9.91667C2.33325 14.735 7.18658 18.2933 13.9999 24.5C20.3816 18.7367 25.6666 14.8633 25.6666 9.91667C25.6666 6.32333 22.8433 3.5 19.2499 3.5ZM11.9466 19.5183C7.52492 15.5633 4.66659 12.8333 4.66659 9.91667C4.66659 7.63 6.46325 5.83333 8.74992 5.83333C9.43825 5.83333 10.1383 6.00833 10.7683 6.32333L8.57492 14H12.5649L11.9466 19.5183ZM17.6516 18.1183L20.6383 8.16667H17.2433L17.9549 6.04333C18.3749 5.90333 18.8183 5.83333 19.2499 5.83333C21.5366 5.83333 23.3333 7.63 23.3333 9.91667C23.3333 12.495 20.9766 15.085 17.6516 18.1183Z" fill="white" fill-opacity="0.5"/>
</svg>
